<svg id="camera" xmlns="http://www.w3.org/2000/svg" viewBox="0 0 79.56 62.52"><defs><style>.cls-1{fill:#16a6cc;}</style></defs><title>camera</title><g id="camera-2" data-name="camera"><path class="cls-1" d="M50.07,80.52H19a8.54,8.54,0,0,1-8.44-6.71,8.41,8.41,0,0,1-.2-1.86q0-19.85,0-39.69a8.56,8.56,0,0,1,8-8.56c0.25,0,.51,0,0.77,0H32.87a0.37,0.37,0,0,0,.41-0.28A9.11,9.11,0,0,1,35.51,20a7,7,0,0,1,4.9-2q9.67,0,19.35,0a7,7,0,0,1,5.92,3.17,16.92,16.92,0,0,1,1.22,2.26,0.38,0.38,0,0,0,.4.25c4.73,0,9.45,0,14.18,0a8.55,8.55,0,0,1,8.33,7.69c0,0.34,0,.68,0,1q0,19.7,0,39.41A8.54,8.54,0,0,1,84.35,80a8.15,8.15,0,0,1-3.05.56H50.07Zm0-5.68H68.7c4.17,0,8.33,0,12.5,0a3.34,3.34,0,0,0,1.29-.25,2.71,2.71,0,0,0,1.68-2.69q0-19.79,0-39.58c0-.08,0-0.15,0-0.23a2.77,2.77,0,0,0-.41-1.37,2.83,2.83,0,0,0-2.56-1.34H63.64a0.4,0.4,0,0,1-.44-0.29q-0.87-2-1.78-4a4.47,4.47,0,0,0-.55-0.89,1.47,1.47,0,0,0-1.22-.56H40.51a1.49,1.49,0,0,0-1.22.55,3.84,3.84,0,0,0-.51.81q-0.93,2-1.81,4a0.42,0.42,0,0,1-.46.29H18.95a2.79,2.79,0,0,0-3,2.93q0,19.8,0,39.61a3.34,3.34,0,0,0,.09.79,2.79,2.79,0,0,0,2.85,2.14H50.07Z" transform="translate(-10.3 -18.01)"/><path class="cls-1" d="M33,52.11A17,17,0,1,1,50,69.16,17.09,17.09,0,0,1,33,52.11Zm17-11.36A11.36,11.36,0,1,0,61.45,52.12,11.32,11.32,0,0,0,50.08,40.75Z" transform="translate(-10.3 -18.01)"/><path class="cls-1" d="M21.68,40.72V35.08h5.65v5.65H21.68Z" transform="translate(-10.3 -18.01)"/></g></svg>