<svg id="film" xmlns="http://www.w3.org/2000/svg" viewBox="0 0 80.05 65.04"><defs><style>.cls-1{fill:#16a6cc;}</style></defs><title>film</title><path class="cls-1" d="M57.62,82.52H12.34A2.5,2.5,0,0,1,9.84,80V51.31a2.5,2.5,0,0,1,2.5-2.5H57.62a2.5,2.5,0,0,1,2.5,2.5V80A2.5,2.5,0,0,1,57.62,82.52Zm-42.77-5H55.12V53.81H14.84V77.52Z" transform="translate(-9.84 -17.48)"/><path class="cls-1" d="M87.39,77.92a2.56,2.56,0,0,1-.58-0.07L66.65,73a2.5,2.5,0,0,1-1.92-2.43V60.92a2.5,2.5,0,0,1,1.9-2.43l20.16-5a2.5,2.5,0,0,1,3.1,2.43v19.5A2.5,2.5,0,0,1,87.39,77.92ZM69.73,68.61l15.16,3.64V59.11L69.73,62.87v5.74Z" transform="translate(-9.84 -17.48)"/><path class="cls-1" d="M20.65,43.58a9.29,9.29,0,1,1,0-18.56A9.29,9.29,0,1,1,20.65,43.58Zm0-13.56a4.29,4.29,0,1,0,0,8.56A4.29,4.29,0,1,0,20.65,30Z" transform="translate(-9.84 -17.48)"/><path class="cls-1" d="M46.91,43.58a13.3,13.3,0,0,1-13.5-13.05,13.51,13.51,0,0,1,27,0A13.3,13.3,0,0,1,46.91,43.58Zm0-21.1a8.29,8.29,0,0,0-8.5,8,8.51,8.51,0,0,0,17,0A8.29,8.29,0,0,0,46.91,22.48Z" transform="translate(-9.84 -17.48)"/></svg>