<svg id="insta" xmlns="http://www.w3.org/2000/svg" viewBox="0 0 79.58 79.58"><defs><style>.cls-1{fill:#fff;}</style></defs><title>insta</title><path class="cls-1" d="M89.58,66.06c-0.31,6.37-1.77,12-6.43,16.68s-10.31,6.12-16.68,6.43C61,89.48,55.54,89.42,50,89.42s-10.93.05-16.42-.26c-6.37-.31-12-1.77-16.68-6.43s-6.12-10.31-6.43-16.68c-0.31-5.49-.26-10.93-0.26-16.42s-0.05-10.93.26-16.42c0.31-6.37,1.76-12,6.43-16.68s10.31-6.11,16.68-6.42C39.12,9.79,44.56,9.85,50,9.85s10.93-.05,16.42.26c6.37,0.31,12,1.76,16.68,6.42s6.12,10.31,6.43,16.68c0.31,5.49.26,10.93,0.26,16.42S89.89,60.57,89.58,66.06Zm-63-47.46A13.57,13.57,0,0,0,19,26.16c-2.07,5.23-1.6,17.67-1.6,23.47S16.94,67.87,19,73.11a13.57,13.57,0,0,0,7.57,7.56c5.23,2.07,17.67,1.61,23.47,1.61s18.24,0.46,23.47-1.61a13.57,13.57,0,0,0,7.57-7.56c2.07-5.23,1.6-17.67,1.6-23.47s0.47-18.24-1.6-23.47a13.57,13.57,0,0,0-7.57-7.56C68.29,16.53,55.85,17,50,17S31.81,16.53,26.58,18.6ZM50,70A20.41,20.41,0,1,1,70.46,49.64,20.39,20.39,0,0,1,50,70Zm0-33.67A13.26,13.26,0,1,0,63.31,49.64,13.29,13.29,0,0,0,50,36.37Zm21.24-3.21a4.77,4.77,0,1,1,4.77-4.77A4.76,4.76,0,0,1,71.29,33.16Z" transform="translate(-10.26 -9.84)"/></svg>