<svg id="Layer_7" data-name="Layer 7" xmlns="http://www.w3.org/2000/svg" viewBox="0 0 79.4 74.44"><defs><style>.cls-1{fill:#16a6cc;}</style></defs><title>mac</title><path class="cls-1" d="M86.84,74.62H12.41a2.48,2.48,0,0,1-2.48-2.48V15.26a2.48,2.48,0,0,1,2.48-2.48H86.84a2.48,2.48,0,0,1,2.48,2.48V72.14A2.48,2.48,0,0,1,86.84,74.62Zm-72-5H84.36V17.74H14.89V69.66Z" transform="translate(-9.93 -12.78)"/><path class="cls-1" d="M86.61,57.51h-74a2.48,2.48,0,0,1,0-5h74A2.48,2.48,0,0,1,86.61,57.51Z" transform="translate(-9.93 -12.78)"/><ellipse class="cls-1" cx="39.7" cy="51.02" rx="2.27" ry="2.29"/><path class="cls-1" d="M49.62,84.92a2.48,2.48,0,0,1-2.48-2.48V72.14a2.48,2.48,0,1,1,5,0v10.3A2.48,2.48,0,0,1,49.62,84.92Z" transform="translate(-9.93 -12.78)"/><path class="cls-1" d="M67.83,87.22H31.42a2.48,2.48,0,1,1,0-5H67.83A2.48,2.48,0,0,1,67.83,87.22Z" transform="translate(-9.93 -12.78)"/></svg>