<svg id="pencil" xmlns="http://www.w3.org/2000/svg" viewBox="0 0 64.59 64.59"><defs><style>.cls-1{fill:#16a6cc;}</style></defs><title>pencil</title><path class="cls-1" d="M29,84.67l-14-14a2.48,2.48,0,0,1,0-3.51L54.31,27.77a2.48,2.48,0,0,1,1-.62L75.62,20.9a2.58,2.58,0,0,1,3.1,3.1L72.47,44.28a2.48,2.48,0,0,1-.62,1L32.49,84.67A2.48,2.48,0,0,1,29,84.67ZM20.22,68.88L30.74,79.4,67.91,42.23,72.6,27,57.39,31.71Z" transform="translate(-14.23 -20.81)"/><path class="cls-1" d="M59.14,40.48a2.49,2.49,0,0,1-.44-0.6l-4.83-9.2a2.48,2.48,0,1,1,4.39-2.3l4.47,8.52,8.52,4.47a2.48,2.48,0,1,1-2.3,4.39l-9.2-4.83A2.49,2.49,0,0,1,59.14,40.48Z" transform="translate(-14.23 -20.81)"/><path class="cls-1" d="M36.86,76.79l-14-14a2.48,2.48,0,1,1,3.51-3.51l14,14A2.48,2.48,0,0,1,36.86,76.79Z" transform="translate(-14.23 -20.81)"/></svg>