<svg id="Layer_8" data-name="Layer 8" xmlns="http://www.w3.org/2000/svg" viewBox="0 0 60.97 79.27"><defs><style>.cls-1{fill:#fff;}</style></defs><title>pinterest</title><path class="cls-1" d="M51.9,10c15,0,28.58,10.29,28.58,26.06,0,14.82-7.58,31.25-24.44,31.25-4,0-9-2-11-5.72C41.42,75.9,41.71,78,33.71,89L33,89.24l-0.43-.48c-0.28-3-.72-6-0.72-9,0-9.72,4.48-23.77,6.67-33.2A18.61,18.61,0,0,1,37,38.55c0-4.81,3.33-10.91,8.76-10.91,4,0,6.15,3,6.15,6.81,0,6.19-4.19,12-4.19,18a7,7,0,0,0,7.33,7c11,0,14.34-15.82,14.34-24.25,0-11.29-8-17.43-18.82-17.43-12.58,0-22.29,9.05-22.29,21.82,0,6.15,3.76,9.29,3.76,10.77,0,1.24-.9,5.62-2.48,5.62a4.68,4.68,0,0,1-.81-0.15c-6.82-2-9.29-11.15-9.29-17.39C19.51,20.83,35.61,10,51.9,10Z" transform="translate(-19.51 -9.97)"/></svg>