<svg id="twitter" xmlns="http://www.w3.org/2000/svg" viewBox="0 0 79.62 64.67"><defs><style>.cls-1{fill:#fff;}</style></defs><title>twitter</title><path class="cls-1" d="M81.74,33.78c0.05,0.71.05,1.41,0.05,2.12,0,21.57-16.42,46.43-46.43,46.43A46.12,46.12,0,0,1,10.3,75a33.89,33.89,0,0,0,3.94.2,32.68,32.68,0,0,0,20.26-7A16.35,16.35,0,0,1,19.24,56.92a20.65,20.65,0,0,0,3.08.25,17.27,17.27,0,0,0,4.29-.56,16.32,16.32,0,0,1-13.09-16V40.4a16.43,16.43,0,0,0,7.38,2.07,16.34,16.34,0,0,1-5.05-21.83A46.38,46.38,0,0,0,49.51,37.72,18.42,18.42,0,0,1,49.1,34,16.33,16.33,0,0,1,77.34,22.82,32.11,32.11,0,0,0,87.7,18.88a16.27,16.27,0,0,1-7.17,9,32.73,32.73,0,0,0,9.4-2.53A35.08,35.08,0,0,1,81.74,33.78Z" transform="translate(-10.3 -17.67)"/></svg>